<?xml version="1.0" standalone="no"?><!DOCTYPE svg PUBLIC "-//W3C//DTD SVG 1.1//EN" "http://www.w3.org/Graphics/SVG/1.1/DTD/svg11.dtd"><svg t="1599939614752" class="icon" viewBox="0 0 1024 1024" version="1.1" xmlns="http://www.w3.org/2000/svg" p-id="8542" xmlns:xlink="http://www.w3.org/1999/xlink" width="200" height="200"><defs><style type="text/css"></style></defs><path d="M485.451852 571.164444a29.202963 29.202963 0 0 1-21.238519-9.102222 28.823704 28.823704 0 0 1-8.722963-20.859259v-322.37037a29.582222 29.582222 0 0 1 29.202963-29.202963h20.100741a29.582222 29.582222 0 0 1 29.582222 29.582222V493.037037h232.106667a29.582222 29.582222 0 0 1 29.582222 29.582222v20.100741a29.582222 29.582222 0 0 1-29.582222 29.582222zM493.037037 75.851852A426.287407 426.287407 0 0 0 73.955556 493.037037a419.84 419.84 0 0 0 839.30074 0A426.287407 426.287407 0 0 0 493.037037 75.851852z m0 910.222222a493.037037 493.037037 0 1 1 493.037037-493.037037 493.037037 493.037037 0 0 1-493.037037 493.037037z" p-id="8543"></path></svg>