<?xml version="1.0" standalone="no"?><!DOCTYPE svg PUBLIC "-//W3C//DTD SVG 1.1//EN" "http://www.w3.org/Graphics/SVG/1.1/DTD/svg11.dtd"><svg t="1600009340986" class="icon" viewBox="0 0 1024 1024" version="1.1" xmlns="http://www.w3.org/2000/svg" p-id="4872" xmlns:xlink="http://www.w3.org/1999/xlink" width="200" height="200"><defs><style type="text/css"></style></defs><path d="M869.8 215.8H589.6l-97.7-97.7-204.4 0.6c-49.8 0-90.6 40.8-90.6 90.6v38.8h-38.8c-49.8 0-90.6 40.8-90.6 90.6V824c0 49.8 40.8 90.6 90.6 90.6h614.6c49.8 0 90.6-40.8 90.6-90.6v-38.8h6.5c49.8 0 90.6-40.8 90.6-90.6V306.4c0-49.8-40.8-90.6-90.6-90.6zM811.6 824c0 21.3-17.5 38.8-38.8 38.8H158.1c-21.3 0-38.8-17.5-38.8-38.8V338.8c0-21.4 17.5-38.8 38.8-38.8h38.8v485.2h614.6V824z m97-129.4c0 21.4-17.5 38.8-38.8 38.8H248.7v-524c0-21.3 17.5-38.8 38.8-38.8l183.1-0.6 97 97.7h302.1c21.4 0 38.8 17.5 38.8 38.8v388.1z m0 0" p-id="4873"></path><path d="M604.5 354.9h-51.8v119.7H433.1v51.8h119.7v119.7h51.8V526.4h119.7v-51.8H604.5V354.9z m0 0" p-id="4874"></path></svg>