<?xml version="1.0" standalone="no"?><!DOCTYPE svg PUBLIC "-//W3C//DTD SVG 1.1//EN" "http://www.w3.org/Graphics/SVG/1.1/DTD/svg11.dtd"><svg t="1600009323426" class="icon" viewBox="0 0 1024 1024" version="1.1" xmlns="http://www.w3.org/2000/svg" p-id="4724" xmlns:xlink="http://www.w3.org/1999/xlink" width="200" height="200"><defs><style type="text/css"></style></defs><path d="M480.425984 410.047488h62.462976v333.138944h-62.462976z" p-id="4725"></path><path d="M345.088 545.385472h333.138944v62.464H345.088z" p-id="4726"></path><path d="M803.195904 961.012736h-582.99392c-40.184832 0-72.873984-32.689152-72.873984-72.873984V138.575872c0-40.184832 32.689152-72.875008 72.873984-72.875008h437.244928v214.417408h218.622976v608.021504c0 40.182784-32.689152 72.87296-72.873984 72.87296zM220.161024 128.12288c-5.746688 0-10.409984 4.66432-10.409984 10.409984v749.563904c0 5.704704 4.663296 10.411008 10.409984 10.411008H803.15392c5.704704 0 10.411008-4.706304 10.411008-10.411008v-545.51552H630.337536c-19.529728 0-35.395584-15.865856-35.395584-35.395584V128.12288H220.161024z" p-id="4727"></path><path d="M657.447936 65.700864l218.622976 214.427648-43.76576 44.622848-218.622976-214.428672z" p-id="4728"></path></svg>