<?xml version="1.0" standalone="no"?><!DOCTYPE svg PUBLIC "-//W3C//DTD SVG 1.1//EN" "http://www.w3.org/Graphics/SVG/1.1/DTD/svg11.dtd"><svg t="1600529704555" class="icon" viewBox="0 0 1024 1024" version="1.1" xmlns="http://www.w3.org/2000/svg" p-id="3114" xmlns:xlink="http://www.w3.org/1999/xlink" width="200" height="200"><defs><style type="text/css"></style></defs><path d="M958.4 263.46666667H473.6l-91.2-148.8c-1.6-1.6-3.2-3.2-3.2-4.8-12.8-14.4-28.8-20.8-48-20.8H62.4c-4.8 0-43.2 1.6-43.2 48V850.66666667c0 1.6 4.8 81.6 52.8 81.6h884.8c48 0 52.8-80 52.8-81.6V316.26666667c1.6-28.8-22.4-52.8-51.2-52.8z m-16 606.4H88c-1.6-6.4-3.2-14.4-4.8-17.6V154.66666667h246.4l99.2 158.4c6.4 9.6 17.6 14.4 27.2 14.4H947.2v524.8c0 3.2-1.6 11.2-4.8 17.6z" fill="#efb336" p-id="3115"></path><path d="M953.6 175.46666667H532.8c-17.6 0-32-14.4-32-32s14.4-32 32-32h422.4c17.6 0 32 14.4 32 32s-16 32-33.6 32z" fill="#efb336" p-id="3116"></path></svg>