<?xml version="1.0" standalone="no"?><!DOCTYPE svg PUBLIC "-//W3C//DTD SVG 1.1//EN" "http://www.w3.org/Graphics/SVG/1.1/DTD/svg11.dtd"><svg t="1600531079132" class="icon" viewBox="0 0 1024 1024" version="1.1" xmlns="http://www.w3.org/2000/svg" p-id="4304" xmlns:xlink="http://www.w3.org/1999/xlink" width="200" height="200"><defs><style type="text/css"></style></defs><path d="M298.239 573.134h426.664c16.85 0 30.484-13.635 30.484-30.484 0-16.838-13.634-30.465-30.484-30.465H298.24c-16.848 0-30.477 13.627-30.477 30.465 0 16.85 13.629 30.484 30.477 30.484z m0 121.906h426.664c16.85 0 30.484-13.634 30.484-30.482 0-16.837-13.634-30.472-30.484-30.472H298.24c-16.848 0-30.477 13.635-30.477 30.472 0 16.848 13.629 30.482 30.477 30.482z m0 121.896h426.664c16.85 0 30.484-13.622 30.484-30.472 0-16.847-13.634-30.472-30.484-30.472H298.24c-16.848 0-30.477 13.625-30.477 30.472 0 16.85 13.629 30.472 30.477 30.472z m0-365.705h182.855c16.844 0 30.484-13.633 30.484-30.477 0-16.843-13.635-30.477-30.484-30.477H298.239c-16.848 0-30.477 13.634-30.477 30.477 0 16.842 13.629 30.477 30.477 30.477z m0 0" p-id="4305" fill="#1296db"></path><path d="M938.237 298.846a30.319 30.319 0 0 0-8.959-21.577L685.533 33.525a30.31 30.31 0 0 0-21.58-8.966H145.86c-33.692 0-60.954 27.262-60.954 60.955v853.332c0 33.683 27.262 60.954 60.954 60.954h731.423c33.697 0 60.954-27.27 60.954-60.954v-640zM694.433 128.605L834.19 268.369H694.433V128.605z m152.378 810.24H176.337c-16.85 0-30.477-13.635-30.477-30.473V115.996c0-16.848 13.628-30.484 30.477-30.484h457.144v213.334c0 16.842 13.634 30.477 30.471 30.477h213.333v579.051c-0.002 16.838-13.624 30.47-30.474 30.47z m0 0" p-id="4306" fill="#1296db"></path></svg>