<?xml version="1.0" standalone="no"?><!DOCTYPE svg PUBLIC "-//W3C//DTD SVG 1.1//EN" "http://www.w3.org/Graphics/SVG/1.1/DTD/svg11.dtd"><svg t="1599937756494" class="icon" viewBox="0 0 1024 1024" version="1.1" xmlns="http://www.w3.org/2000/svg" p-id="2817" xmlns:xlink="http://www.w3.org/1999/xlink" width="200" height="200"><defs><style type="text/css"></style></defs><path d="M893.952 217.088H431.616l-48.128-90.112c-10.752-19.968-31.232-32.256-53.76-32.256h-199.68c-33.792 0-60.928 27.648-60.928 60.928v702.976c0 33.792 27.648 60.928 60.928 60.928h763.904c33.792 0 60.928-27.648 60.928-60.928V278.016c0-33.792-27.648-60.928-60.928-60.928z m-764.416-61.44h199.68l65.536 122.368h499.2v93.696H130.048V155.648z m0 702.976v-91.648l1.024-334.336 762.88 1.024v424.96H129.536z m0 0" p-id="2818"></path></svg>